<svg width="18" height="18" viewBox="0 0 18 18" fill="none" xmlns="http://www.w3.org/2000/svg">
<g id="search" clip-path="url(#clip0_279_25)">
<path id="Vector" fill-rule="evenodd" clip-rule="evenodd" d="M11.7458 11.7474C11.8503 11.6428 11.9744 11.5599 12.1109 11.5032C12.2475 11.4466 12.3939 11.4175 12.5418 11.4175C12.6896 11.4175 12.836 11.4466 12.9726 11.5032C13.1091 11.5599 13.2332 11.6428 13.3377 11.7474L17.6689 16.0787C17.88 16.2896 17.9987 16.5758 17.9988 16.8742C17.9989 17.1726 17.8804 17.4589 17.6695 17.67C17.4586 17.8811 17.1724 17.9997 16.874 17.9998C16.5755 17.9999 16.2893 17.8815 16.0782 17.6706L11.7469 13.3393C11.6423 13.2348 11.5594 13.1107 11.5027 12.9742C11.4461 12.8376 11.417 12.6912 11.417 12.5434C11.417 12.3955 11.4461 12.2491 11.5027 12.1126C11.5594 11.976 11.6423 11.8519 11.7469 11.7474H11.7458Z" fill="#DB5114"/>
<path id="Vector_2" fill-rule="evenodd" clip-rule="evenodd" d="M7.3125 13.5C8.12505 13.5 8.92965 13.34 9.68035 13.029C10.4311 12.7181 11.1132 12.2623 11.6877 11.6877C12.2623 11.1132 12.7181 10.4311 13.029 9.68035C13.34 8.92965 13.5 8.12505 13.5 7.3125C13.5 6.49995 13.34 5.69535 13.029 4.94465C12.7181 4.19394 12.2623 3.51184 11.6877 2.93728C11.1132 2.36271 10.4311 1.90695 9.68035 1.596C8.92965 1.28504 8.12505 1.125 7.3125 1.125C5.67147 1.125 4.09766 1.7769 2.93728 2.93728C1.7769 4.09766 1.125 5.67147 1.125 7.3125C1.125 8.95353 1.7769 10.5273 2.93728 11.6877C4.09766 12.8481 5.67147 13.5 7.3125 13.5ZM14.625 7.3125C14.625 9.2519 13.8546 11.1119 12.4832 12.4832C11.1119 13.8546 9.2519 14.625 7.3125 14.625C5.3731 14.625 3.51314 13.8546 2.14178 12.4832C0.770422 11.1119 0 9.2519 0 7.3125C0 5.3731 0.770422 3.51314 2.14178 2.14178C3.51314 0.770422 5.3731 0 7.3125 0C9.2519 0 11.1119 0.770422 12.4832 2.14178C13.8546 3.51314 14.625 5.3731 14.625 7.3125Z" fill="#DB5114"/>
</g>
<defs>
<clipPath id="clip0_279_25">
<rect width="18" height="18" fill="white"/>
</clipPath>
</defs>
</svg>
